<?xml version="1.0" standalone="no"?>
<!DOCTYPE svg PUBLIC "-//W3C//DTD SVG 20010904//EN"
 "http://www.w3.org/TR/2001/REC-SVG-20010904/DTD/svg10.dtd">
<svg version="1.0" xmlns="http://www.w3.org/2000/svg"
 width="316.000000pt" height="316.000000pt" viewBox="0 0 316.000000 316.000000"
 preserveAspectRatio="xMidYMid meet">
<metadata>
Created by potrace 1.14, written by Peter Selinger 2001-2017
</metadata>
<g transform="translate(0.000000,316.000000) scale(0.100000,-0.100000)"
fill="#000000" stroke="none">
<path d="M1468 3135 c-2 -1 -32 -5 -68 -9 -66 -6 -98 -11 -128 -20 -9 -3 -36
-8 -60 -11 -124 -18 -407 -151 -530 -250 -209 -167 -300 -262 -425 -443 -55
-79 -171 -351 -169 -394 0 -10 -4 -20 -9 -23 -5 -4 -7 -10 -4 -14 2 -5 0 -23
-5 -41 -26 -90 -35 -524 -12 -615 6 -27 14 -61 16 -75 12 -76 38 -174 47 -184
5 -6 9 -18 9 -27 0 -9 9 -38 21 -65 11 -27 27 -65 36 -84 21 -51 63 -131 85
-162 10 -14 18 -31 18 -36 0 -6 3 -12 8 -14 4 -2 35 -37 68 -78 34 -41 101
-111 149 -155 48 -44 92 -85 99 -91 23 -21 135 -94 145 -94 6 0 11 -4 11 -9 0
-4 24 -19 53 -31 145 -64 227 -97 227 -93 0 3 7 0 15 -7 8 -7 15 -9 15 -6 0 4
9 2 20 -4 10 -6 32 -12 47 -15 15 -2 51 -9 78 -15 28 -6 62 -13 76 -15 31 -6
189 -17 244 -17 52 0 238 12 245 17 3 2 26 6 50 9 43 5 69 10 108 21 9 2 37 9
62 15 166 39 395 153 527 261 22 19 55 45 72 57 33 25 152 143 187 185 38 46
108 147 121 177 4 8 9 17 13 20 15 12 72 146 109 256 45 135 63 232 40 219
-11 -7 -11 -5 1 10 8 10 14 20 13 22 -7 9 -2 34 5 29 5 -3 9 1 9 9 0 8 -4 12
-9 9 -4 -3 -8 0 -8 5 0 6 7 11 16 11 13 0 14 3 5 13 -7 9 -7 17 0 24 30 30 29
305 -1 453 -6 30 -14 66 -16 80 -3 13 -11 31 -17 39 -7 8 -11 17 -10 20 3 7
-19 81 -37 126 -6 17 -11 31 -11 32 0 1 -21 42 -45 90 -87 168 -192 308 -354
470 -48 49 -175 145 -230 174 -25 13 -47 27 -50 30 -5 6 -168 92 -180 94 -3 1
-18 7 -35 14 -46 20 -173 59 -208 65 -62 11 -91 17 -98 22 -5 3 -73 7 -151 10
-79 3 -155 7 -170 9 -15 1 -28 2 -30 0z"/>
</g>
</svg>
