<?xml version="1.0" standalone="no"?>
<!DOCTYPE svg PUBLIC "-//W3C//DTD SVG 20010904//EN"
 "http://www.w3.org/TR/2001/REC-SVG-20010904/DTD/svg10.dtd">
<svg version="1.0" xmlns="http://www.w3.org/2000/svg"
 width="380.000000pt" height="380.000000pt" viewBox="0 0 380.000000 380.000000"
 preserveAspectRatio="xMidYMid meet">
<metadata>
Created by potrace 1.14, written by Peter Selinger 2001-2017
</metadata>
<g transform="translate(0.000000,380.000000) scale(0.100000,-0.100000)"
fill="#000000" stroke="none">
<path d="M1737 3469 c-27 -4 -68 -10 -90 -13 -23 -3 -53 -9 -67 -12 -14 -3
-34 -6 -46 -8 -161 -22 -444 -171 -639 -336 -72 -61 -217 -213 -250 -262 -5
-9 -30 -44 -54 -79 -55 -78 -102 -174 -148 -299 -35 -95 -39 -109 -48 -165 -3
-16 -7 -37 -10 -45 -12 -48 -19 -180 -20 -366 0 -164 3 -215 14 -228 7 -9 11
-16 9 -16 -3 0 -1 -21 4 -47 5 -27 12 -61 14 -78 15 -88 108 -327 170 -433
113 -197 394 -454 594 -545 105 -48 240 -98 300 -111 182 -40 192 -41 410 -40
193 1 222 4 383 38 15 3 37 8 50 10 35 6 181 57 192 67 5 5 15 9 23 9 37 0
270 137 346 204 16 15 32 26 35 26 10 0 164 152 201 199 19 24 41 50 48 57 25
26 122 194 148 257 37 88 92 255 100 306 5 32 3 45 -7 52 -9 6 -10 9 -2 9 6 0
10 9 8 20 -2 11 3 24 13 30 14 8 14 9 2 10 -11 0 -12 2 -3 8 27 17 46 249 32
382 -14 128 -24 172 -79 340 -79 242 -308 562 -519 724 -141 108 -324 208
-484 265 -55 19 -131 35 -151 31 -5 -1 -12 3 -15 9 -8 13 -68 20 -226 27 -66
2 -136 6 -155 7 -19 2 -57 0 -83 -4z"/>
</g>
</svg>
